<?xml version="1.0" encoding="utf-8"?>
<svg viewBox="89.4321 112.9383 252.3489 142.0655" xmlns="http://www.w3.org/2000/svg">
  <path d="M 122.781 115.962 C 141.492 114.773 159.378 121.253 173.781 132.962 C 192.076 149.313 196.485 174.292 202.883 196.912 C 206.706 210.483 206.706 210.483 211.031 223.899 C 211.253 224.561 211.475 225.222 211.703 225.903 C 213.316 230.417 215.34 234.741 219.781 236.962 C 221.277 237.082 222.78 237.137 224.281 237.149 C 225.472 237.17 225.472 237.17 226.687 237.192 C 229.001 237.158 229.001 237.158 230.781 234.962 C 230.224 234.353 229.667 233.745 229.093 233.118 C 224.376 227.699 220.629 222.365 217.406 215.962 C 217.085 215.335 216.764 214.707 216.433 214.061 C 212.005 204.915 210.233 195.834 210.343 185.712 C 210.352 184.709 210.361 183.706 210.371 182.673 C 210.794 164.385 217.677 147.822 230.781 134.962 C 234.061 138.751 235.753 143.136 237.656 147.712 C 238.011 148.557 238.366 149.403 238.732 150.274 C 240.877 155.478 242.711 160.684 244.281 166.087 C 249.671 184.373 259.539 200.464 271.781 214.962 C 272.331 215.658 272.882 216.354 273.449 217.071 C 280.731 225.997 290.881 233.75 302.535 235.337 C 312.161 235.765 319.255 232.045 326.628 226.11 C 330.477 222.269 333.129 217.677 335.781 212.962 C 338.218 213.337 338.218 213.337 340.781 213.962 C 341.111 214.622 341.441 215.282 341.781 215.962 C 336.17 231.435 321.17 241.45 306.984 248.126 C 291.15 255.231 274.068 256.387 257.437 251.38 C 251.975 249.262 246.904 246.578 241.828 243.669 C 238.873 241.888 238.873 241.888 235.781 240.962 C 235.121 241.684 234.461 242.405 233.781 243.149 C 225.967 250.875 216.704 254.043 205.843 254.399 C 193.14 254.082 183.006 248.539 174.218 239.587 C 162.831 225.994 158.616 208.777 153.781 192.087 C 153.116 189.826 152.449 187.565 151.781 185.305 C 150.449 180.794 149.118 176.283 147.789 171.771 C 147.459 170.654 147.129 169.537 146.79 168.386 C 146.107 166.068 145.427 163.751 144.749 161.432 C 143.729 157.957 142.694 154.486 141.656 151.016 C 141.355 149.982 141.055 148.947 140.746 147.881 C 136.875 134.181 136.875 134.181 127.781 123.962 C 126.133 123.25 124.469 122.571 122.781 121.962 C 122.781 119.982 122.781 118.002 122.781 115.962 Z" fill="#e41e2f"/>
  <path d="M 125.219 208.962 C 131.056 212.312 134.295 216.855 137.156 222.837 C 138.723 230.672 138.278 236.646 134.324 243.7 C 130.501 249.304 125.77 252.705 119.231 254.548 C 111.218 255.902 104.69 254.218 97.949 249.782 C 93.766 246.269 91.488 242.083 89.781 236.962 C 89.142 229.298 88.855 222.219 93.781 215.962 C 102.413 206.879 113.264 203.582 125.219 208.962 Z" fill="#252638"/>
  <path d="M 311.961 117.442 C 317.786 122.304 321.262 126.995 322.066 134.688 C 322.428 142.026 321.362 147.148 316.781 152.961 C 311.248 158.945 306.105 161.007 297.969 161.336 C 291.301 161.196 286.099 159.835 281 155.418 C 276.214 150.293 273.726 144.587 273.344 137.586 C 273.614 131.309 275.446 125.555 279.687 120.844 C 289.021 112.45 301.145 109.845 311.961 117.442 Z" fill="#252638"/>
</svg>